HIERARCHY
ROOT Hips
{
	OFFSET -0.001795 -0.223333 0.028219
	CHANNELS 6 Xposition Yposition Zposition Zrotation Yrotation Xrotation 
	JOINT LeftUpLeg
	{
		OFFSET 0.069520 -0.091406 -0.006815
		CHANNELS 3 Zrotation Yrotation Xrotation
		JOINT LeftLeg
		{
			OFFSET 0.034277 -0.375199 -0.004496
			CHANNELS 3 Zrotation Yrotation Xrotation
			JOINT LeftFoot
			{
				OFFSET -0.013596 -0.397961 -0.043693
				CHANNELS 3 Zrotation Yrotation Xrotation
				JOINT LeftToe
				{
					OFFSET 0.026358 -0.055791 0.119288
					CHANNELS 3 Zrotation Yrotation Xrotation
					End Site
					{
						OFFSET 0.000000 0.000000 0.000000
					}
				}
			}
		}
	}
	JOINT RightUpLeg
	{
		OFFSET -0.067670 -0.090522 -0.004320
		CHANNELS 3 Zrotation Yrotation Xrotation
		JOINT RightLeg
		{
			OFFSET -0.038290 -0.382569 -0.008850
			CHANNELS 3 Zrotation Yrotation Xrotation
			JOINT RightFoot
			{
				OFFSET 0.015774 -0.398415 -0.042312
				CHANNELS 3 Zrotation Yrotation Xrotation
				JOINT RightToe
				{
					OFFSET -0.025372 -0.048144 0.123348
					CHANNELS 3 Zrotation Yrotation Xrotation
					End Site
					{
						OFFSET 0.000000 0.000000 0.000000
					}
				}
			}
		}
	}
	JOINT Spine
	{
		OFFSET -0.002533 0.108963 -0.026696
		CHANNELS 3 Zrotation Yrotation Xrotation
		JOINT Spine1
		{
			OFFSET 0.005487 0.135180 0.001092
			CHANNELS 3 Zrotation Yrotation Xrotation
			JOINT Spine2
			{
				OFFSET 0.001457 0.052922 0.025425
				CHANNELS 3 Zrotation Yrotation Xrotation
				JOINT Neck
				{
					OFFSET -0.002778 0.213870 -0.042857
					CHANNELS 3 Zrotation Yrotation Xrotation
					JOINT Head
					{
						OFFSET 0.005152 0.064970 0.051349
						CHANNELS 3 Zrotation Yrotation Xrotation
						End Site
						{
							OFFSET 0.000000 0.000000 0.000000
						}
					}
				}
				JOINT LeftShoulder
				{
					OFFSET 0.078845 0.121749 -0.034090
					CHANNELS 3 Zrotation Yrotation Xrotation
					JOINT LeftArm
					{
						OFFSET 0.090977 0.030469 -0.008868
						CHANNELS 3 Zrotation Yrotation Xrotation
						JOINT LeftForeArm
						{
							OFFSET 0.259612 -0.012772 -0.027456
							CHANNELS 3 Zrotation Yrotation Xrotation
							JOINT LeftHand
							{
								OFFSET 0.249234 0.008986 -0.001171
								CHANNELS 3 Zrotation Yrotation Xrotation
								End Site
								{
									OFFSET 0.000000 0.000000 0.000000
								}
							}
						}
					}
				}
				JOINT RightShoulder
				{
					OFFSET -0.081759 0.118833 -0.038615
					CHANNELS 3 Zrotation Yrotation Xrotation
					JOINT RightArm
					{
						OFFSET -0.096012 0.032551 -0.009143
						CHANNELS 3 Zrotation Yrotation Xrotation
						JOINT RightForeArm
						{
							OFFSET -0.253742 -0.013329 -0.021401
							CHANNELS 3 Zrotation Yrotation Xrotation
							JOINT RightHand
							{
								OFFSET -0.255298 0.007772 -0.005559
								CHANNELS 3 Zrotation Yrotation Xrotation
								End Site
								{
									OFFSET 0.000000 0.000000 0.000000
								}
							}
						}
					}
				}
			}
		}
	}
}
MOTION
Frames: 9
Frame Time: 0.050000
0.000000 0.920722 0.000000 0.913564 -25.741747 -2.572405 -4.773780 -1.625373 -14.812300 -1.582366 0.294430 2.810262 9.038048 16.656983 11.896180 0.000000 0.000000 0.000000 0.156706 -0.454860 11.423156 1.703484 0.505240 10.901918 -1.030964 3.493912 -6.330003 0.000000 0.000000 0.000000 -2.626379 0.097682 10.852115 5.052814 -1.419288 -19.932039 -0.434654 8.674745 28.342507 3.979670 -1.100424 -34.073907 0.000000 0.000000 0.000000 -45.960179 2.143650 -0.354135 -34.250528 -12.484414 -4.241903 0.058042 -26.600058 1.587079 0.000000 0.000000 0.000000 33.548817 8.783779 -0.178637 43.465499 15.711685 0.218170 -0.619528 23.247088 0.574459 0.000000 0.000000 0.000000 
-0.014711 0.920132 0.038852 0.746602 -25.549493 -1.548264 -4.325501 -1.435937 -12.854066 -3.474575 0.647081 1.872931 9.963151 18.276152 12.229972 0.000000 0.000000 0.000000 1.411440 -0.644155 10.396384 -0.523336 1.435196 15.987563 -1.274489 2.367725 -5.867499 0.000000 0.000000 0.000000 -3.716093 0.119824 7.721455 6.494116 -1.786814 -19.379533 -1.494802 8.856346 30.171708 3.694224 -0.905807 -35.095986 0.000000 0.000000 0.000000 -46.801207 4.356414 -2.421478 -33.670396 -13.322815 -4.175893 0.349291 -26.353284 1.567402 0.000000 0.000000 0.000000 33.611529 10.705202 1.329360 42.736190 19.777200 1.344228 -2.466095 24.228672 0.274758 0.000000 0.000000 0.000000 
-0.028124 0.923325 0.075885 0.447241 -22.472768 -1.734552 -5.455464 -1.504623 -11.603076 -2.476829 0.503829 5.564633 9.980116 19.779938 6.766288 0.000000 0.000000 0.000000 0.771304 -0.518307 7.529103 2.220459 1.975874 25.879573 -1.100802 0.363555 -3.647154 0.000000 0.000000 0.000000 -3.625954 0.067403 6.784525 4.663358 -1.334995 -18.872736 -0.399545 6.949244 30.176181 2.482729 -0.431538 -33.491820 0.000000 0.000000 0.000000 -46.666349 3.980462 -2.198012 -33.336813 -12.266617 -4.339587 2.254626 -27.352130 1.181710 0.000000 0.000000 0.000000 30.207114 9.200523 0.760586 45.027846 22.445163 2.233817 -0.827621 25.386620 0.624141 0.000000 0.000000 0.000000 
-0.039335 0.925973 0.108418 0.460193 -20.440323 -2.837377 -5.686512 -1.243544 -8.633167 -3.862200 0.801751 6.223129 8.201342 17.011340 4.401046 0.000000 0.000000 0.000000 -0.496535 -0.161695 2.959220 6.470529 2.049767 38.472055 -0.829448 -4.372178 3.813216 0.000000 0.000000 0.000000 -5.332796 0.215849 7.761964 5.727235 -1.663956 -18.084288 -1.207104 6.866767 30.462588 4.191722 -1.081911 -33.619395 0.000000 0.000000 0.000000 -46.066353 3.266796 -2.284206 -32.855795 -13.113721 -3.923688 3.043354 -29.392051 1.046172 0.000000 0.000000 0.000000 30.683659 11.008649 2.589696 41.558919 26.167520 2.966750 -1.547655 27.050718 0.555840 0.000000 0.000000 0.000000 
-0.048274 0.928336 0.135322 -0.069268 -17.449974 -3.197971 -5.198657 -0.985044 -6.735212 -3.691775 0.751859 7.555106 6.699086 14.392851 1.553823 0.000000 0.000000 0.000000 -2.101351 0.223254 -1.617861 9.719577 0.926321 46.141051 -3.928317 -11.342348 4.964386 0.000000 0.000000 0.000000 -5.549806 0.238305 8.925863 5.714509 -1.620751 -18.109211 -1.288359 6.493981 30.625618 5.640628 -1.487167 -34.399419 0.000000 0.000000 0.000000 -44.991229 2.097679 -2.208001 -31.932751 -12.402249 -3.685661 2.240572 -32.075827 1.258355 0.000000 0.000000 0.000000 30.175397 13.102381 4.797875 39.852221 29.440069 3.574240 -6.073129 27.083455 -0.372650 0.000000 0.000000 0.000000 
-0.054624 0.930444 0.158271 -0.749256 -14.558608 -2.837560 -4.696402 -0.801209 -5.616745 -3.063042 0.566619 8.257709 4.759962 10.292207 -0.236459 0.000000 0.000000 0.000000 -2.119500 0.671115 -7.168936 10.760882 -0.075472 49.072449 -7.210557 -17.793081 3.281321 0.000000 0.000000 0.000000 -5.369891 0.228902 10.034636 5.677427 -1.552264 -18.091629 -1.255264 5.620572 30.112572 5.999216 -1.560918 -33.856561 0.000000 0.000000 0.000000 -44.234917 1.299346 -2.203927 -31.623447 -11.794424 -3.523313 2.529064 -33.549263 1.143490 0.000000 0.000000 0.000000 29.653257 15.490713 6.851823 35.889449 32.303052 3.705286 -9.020835 26.750095 -1.011871 0.000000 0.000000 0.000000 
-0.059061 0.933812 0.179554 -1.081421 -10.968796 -2.763446 -4.850119 -0.734955 -5.183454 -1.903429 0.255166 9.588089 3.123315 6.429035 -1.737890 0.000000 0.000000 0.000000 -2.023188 0.965345 -10.361126 9.058436 -0.195337 47.362024 -7.994636 -19.222901 0.400165 0.000000 0.000000 0.000000 -5.021105 0.182061 11.335381 5.613540 -1.392393 -18.990662 -1.412824 4.938426 30.973034 6.312441 -1.529329 -33.772585 0.000000 0.000000 0.000000 -43.441782 0.826634 -2.666368 -31.680244 -11.310700 -3.417167 3.357262 -34.391893 0.855019 0.000000 0.000000 0.000000 29.272861 15.380977 7.524603 33.510916 34.720590 3.624778 -10.736913 26.027067 -1.291036 0.000000 0.000000 0.000000 
-0.062032 0.936224 0.200265 -1.387638 -6.757437 -2.613164 -5.127231 -0.649699 -4.646722 -0.497404 -0.138706 10.310569 1.356960 1.857505 -3.186274 0.000000 0.000000 0.000000 -1.581572 1.178910 -12.515341 6.016244 0.178933 42.738100 -7.814735 -18.658933 -2.543251 0.000000 0.000000 0.000000 -4.644032 0.100278 12.478186 5.982972 -1.430007 -18.798334 -1.370855 4.489624 30.302427 5.958667 -1.060711 -32.999665 0.000000 0.000000 0.000000 -43.724665 0.774191 -4.180887 -30.931670 -10.285655 -3.110756 2.445674 -34.520134 0.976868 0.000000 0.000000 0.000000 29.021219 15.878120 8.795507 31.083192 35.690674 3.206524 -11.930135 24.228571 -1.386824 0.000000 0.000000 0.000000 
-0.064087 0.937979 0.221295 -1.603701 -3.403063 -2.024028 -5.607489 -0.565037 -4.129902 1.287718 -0.566401 10.139648 -0.200516 -2.083089 -3.539710 0.000000 0.000000 0.000000 -0.926076 1.358499 -14.044124 2.191905 1.071265 36.291818 -6.544590 -15.334955 -4.691381 0.000000 0.000000 0.000000 -3.531154 -0.074213 12.887056 5.288549 -1.172756 -18.546536 -0.622401 4.465857 30.517889 5.353449 -0.370546 -33.398874 0.000000 0.000000 0.000000 -43.558130 0.778005 -5.523089 -31.264183 -9.107442 -3.021483 2.444616 -33.516691 0.844275 0.000000 0.000000 0.000000 28.199865 15.665941 9.486872 29.619582 37.093451 3.003382 -12.423016 22.746384 -1.333930 0.000000 0.000000 0.000000 
